<svg id="icons" xmlns="http://www.w3.org/2000/svg" viewBox="0 0 64 64"><defs><style>.cls-1{fill:none;stroke:#000;stroke-linecap:round;stroke-linejoin:round;stroke-width:2px;}</style></defs><title>23</title><g id="divorce_2"><path class="cls-1" d="M49.52512,49.9218a11.8104,11.8104,0,0,1-15.46587-6.35272,11.50318,11.50318,0,0,1-.74953-2.57766l2.212-1.67269-.64895-6.45325a11.70227,11.70227,0,0,1,5.5392-4.77142A11.82687,11.82687,0,0,1,49.52512,49.9218Z"/><path class="cls-1" d="M50.75914,52.8742a14.97283,14.97283,0,0,1-19.65228-8.07111,14.41824,14.41824,0,0,1-.59416-1.70019l2.797-2.11148,2.212-1.67269-.64895-6.45325-.46618-4.55206A15.029,15.029,0,1,1,50.75914,52.8742Z"/><polygon class="cls-1" points="40.07 9.959 44.054 9.959 48.039 9.959 50.241 13.545 44.054 19.732 37.868 13.545 40.07 9.959"/><polyline class="cls-1" points="30.394 31.869 30.403 31.878 31.043 35.525 23.264 39.739 24.361 47.106"/><path class="cls-1" d="M8.11824,41.10109a11.82585,11.82585,0,0,0,15.475,6.371,8.40049,8.40049,0,0,0,.76783-.36565l.49357,3.29065c-.00915.00915-.02739.00915-.03654.01824A15.02257,15.02257,0,1,1,29.28789,25.553l.98714,5.62143.11883.6947c-2.51366-6.01453-9.89928-8.75671-15.9229-6.23389A11.818,11.818,0,0,0,8.11824,41.10109Z"/></g></svg>