<svg id="icons" xmlns="http://www.w3.org/2000/svg" viewBox="0 0 64 64"><defs><style>.cls-1{fill:none;stroke:#000;stroke-linecap:round;stroke-linejoin:round;stroke-width:2px;}</style></defs><title>22</title><g id="divorce_1"><polyline class="cls-1" points="8.722 22.886 8.722 60 20.413 59.994 20.413 22.886"/><line class="cls-1" x1="14.56797" y1="59.99697" x2="14.56797" y2="41.89586"/><polyline class="cls-1" points="30.275 52.508 30.275 59.985 37.802 59.985 37.802 52.457"/><line class="cls-1" x1="34.03825" y1="59.98449" x2="34.03825" y2="56.8477"/><path class="cls-1" d="M20.41349,39.5547h.6792a4.07862,4.07862,0,0,0,4.04324-4.11311V24.11929a8.15725,8.15725,0,0,0-8.08649-8.22622h-4.963A8.15725,8.15725,0,0,0,4,24.11929v11.3223A4.07862,4.07862,0,0,0,8.04324,39.5547h.6792"/><path class="cls-1" d="M44.98946,38.78573a3.34789,3.34789,0,0,1-2.153-3.13625V26.45667a6.62758,6.62758,0,0,1,6.57027-6.68381h4.03314A6.62557,6.62557,0,0,1,60,26.45667v9.19281a3.339,3.339,0,0,1-2.14292,3.13625"/><ellipse class="cls-1" cx="14.56797" cy="9.94653" rx="5.84552" ry="5.94653"/><ellipse class="cls-1" cx="51.42002" cy="15.52585" rx="4.17487" ry="4.24701"/><ellipse class="cls-1" cx="34.03825" cy="37.97298" rx="3.29515" ry="3.35209"/><path class="cls-1" d="M54.93336,24.85516H47.90667L43.50431,46.36829a1.02351,1.02351,0,0,0,.99138,1.2289H58.34434a1.02351,1.02351,0,0,0,.99139-1.2289Z"/><path class="cls-1" d="M51.42,59.97065h0a2.22377,2.22377,0,0,0,2.18242-1.797l2.06819-10.57647H47.16941L49.2376,58.17366A2.22376,2.22376,0,0,0,51.42,59.97065Z"/><rect class="cls-1" x="28.54038" y="41.32507" width="10.99574" height="11.18576" rx="2"/><line class="cls-1" x1="39.53612" y1="43.38162" x2="42.83643" y2="35.64948"/><line class="cls-1" x1="28.54038" y1="43.38162" x2="25.13593" y2="35.44159"/><line class="cls-1" x1="55.67063" y1="20.17597" x2="54.93336" y2="24.85516"/><line class="cls-1" x1="47.24515" y1="20.14788" x2="47.90667" y2="24.85516"/><path class="cls-1" d="M8.86182,8.63078l1.18392-.40465a4.19827,4.19827,0,0,1,4.07379.74605h0a4.05832,4.05832,0,0,0,2.68556.97435h3.6084"/><path class="cls-1" d="M44.74213,21.74948c-1.04934-3.19685-2.8747-13.9026,6.67608-13.9026s7.72614,10.70575,6.6768,13.9026"/></g></svg>