<svg id="icons" xmlns="http://www.w3.org/2000/svg" viewBox="0 0 64 64"><defs><style>.cls-1,.cls-2{fill:none;stroke:#000;stroke-width:2px;}.cls-1{stroke-miterlimit:10;}.cls-2{stroke-linecap:round;stroke-linejoin:round;}</style></defs><title>28</title><g id="diploma"><ellipse class="cls-1" cx="32.01083" cy="41.87185" rx="8.28164" ry="7.93935" transform="translate(-12.5407 70.03398) rotate(-84.90026)"/><polyline class="cls-2" points="37.764 47.535 42.277 57.547 37.903 56.68 36.38 59.927 32.012 50.151 27.185 60 25.514 56.777 21.722 57.71 26.67 48.041"/><ellipse class="cls-1" cx="32.01083" cy="41.87185" rx="4.09416" ry="3.92494" transform="translate(-12.5407 70.03398) rotate(-84.90026)"/><polyline class="cls-2" points="39.95 41.748 53.49 41.748 53.49 10.928 10.851 10.928 10.851 41.748 24.071 41.748"/><polyline class="cls-2" points="36.49 48.674 38.28 48.674 60 48.674 60 4.002 4.001 4.002 4.001 48.674 26.34 48.674 27.44 48.674"/><line class="cls-2" x1="53.49154" y1="10.9265" x2="59.99907" y2="4"/><line class="cls-2" x1="10.85008" y1="10.9265" x2="4.00004" y2="4"/><line class="cls-2" x1="4.00004" y1="48.67593" x2="10.85008" y2="41.74943"/><line class="cls-2" x1="59.99907" y1="48.67593" x2="53.49154" y2="41.74943"/><line class="cls-2" x1="20.88453" y1="27.25405" x2="43.02295" y2="27.25405"/><line class="cls-2" x1="20.88453" y1="22.85794" x2="43.02295" y2="22.85794"/><line class="cls-2" x1="20.88453" y1="18.27993" x2="43.02295" y2="18.27993"/></g></svg>