<svg id="icons" xmlns="http://www.w3.org/2000/svg" viewBox="0 0 64 64"><defs><style>.cls-1{fill:none;stroke:#000;stroke-linecap:round;stroke-linejoin:round;stroke-width:2px;}</style></defs><title>26</title><g id="agreement_1"><line class="cls-1" x1="42.98245" y1="39.69727" x2="42.99186" y2="39.68786"/><path class="cls-1" d="M29.53406,46.72732l-2.49392,2.49393a2.26922,2.26922,0,1,0,3.20916,3.20917l5.11961-5.11961"/><line class="cls-1" x1="45.52343" y1="37.15629" x2="52.61936" y2="30.06036"/><path class="cls-1" d="M26.04317,43.17984,23.694,45.52906a2.49066,2.49066,0,0,1-3.52232,0h0a2.49065,2.49065,0,0,1,.003-3.52528l2.35021-2.34231"/><polyline class="cls-1" points="41.514 18.475 34.249 21.402 33.035 22.579"/><path class="cls-1" d="M30.19284,25.31719,19.03134,36.10225l-1.4493,1.4493-.9317.9317A2.48928,2.48928,0,0,0,20.123,42.05a.1652.1652,0,0,0,.047-.03764l2.35276-2.35276"/><path class="cls-1" d="M29.53318,46.72653l-2.34774,2.34774a2.49276,2.49276,0,0,1-3.52529,0h0a2.49275,2.49275,0,0,1,0-3.52528l2.38132-2.38133"/><rect class="cls-1" x="39.6857" y="36.64891" width="9.18666" height="3.58868" rx="1.70716" transform="translate(48.40556 96.93673) rotate(-135)"/><rect class="cls-1" x="37.1455" y="39.18911" width="9.18666" height="3.58868" rx="1.70716" transform="translate(42.27296 99.47694) rotate(-135)"/><rect class="cls-1" x="34.60953" y="41.72508" width="9.18666" height="3.58868" rx="1.70716" transform="translate(36.15058 102.01291) rotate(-135)"/><rect class="cls-1" x="32.0885" y="44.28453" width="9.18666" height="3.58868" rx="1.70716" transform="translate(30.03711 104.59952) rotate(-135)"/><path class="cls-1" d="M45.03344,11.10205l-4.15633,3.98572a2.03284,2.03284,0,0,0,.13343,2.85856l11.98267,12.4956a2.03284,2.03284,0,0,0,2.85046.25306L60,26.70928"/><path class="cls-1" d="M18.25584,10.90493l4.14839,3.99332a1.985,1.985,0,0,1-.06517,2.79311L10.92541,29.64129a1.96638,1.96638,0,0,1-2.777.18264L4,25.8306"/><line class="cls-1" x1="10.88232" y1="29.6852" x2="18.16535" y2="36.96823"/><path class="cls-1" d="M22.27075,17.75686l6.13981,1.28384a4.70564,4.70564,0,0,1,2.3642,1.2786l6.575,6.57506a1.974,1.974,0,0,1,0,2.79164h0a1.974,1.974,0,0,1-2.79165,0l-4.36861-4.36862"/></g></svg>