<svg id="icons" xmlns="http://www.w3.org/2000/svg" viewBox="0 0 64 64"><defs><style>.cls-1{fill:none;stroke:#000;stroke-linecap:round;stroke-linejoin:round;stroke-width:2px;}</style></defs><title>7</title><g id="Bible_1"><path class="cls-1" d="M30.75788,46.75013H36.6605a2.33026,2.33026,0,0,0,.27012-.01047,2.83587,2.83587,0,0,0,.65028-.16753l.09-.03141a2.531,2.531,0,0,0,.83037-.58634,2.82387,2.82387,0,0,0,.76034-1.937,2.66773,2.66773,0,0,0-2.60115-2.73276H26.586a12.33048,12.33048,0,0,0-6.753,2.04171L12.813,47.855"/><path class="cls-1" d="M12.813,56.36158h9.6525a23.3844,23.3844,0,0,0,6.26129-.85383l12.80755-3.55926a23.88065,23.88065,0,0,0,7.75027-3.77871l7.58627-5.57738a2.861,2.861,0,0,0,.35124-4.23887h0a2.56744,2.56744,0,0,0-3.35135-.34654l-5.444,4.34525a20.22879,20.22879,0,0,1-11.49615,4.38742h0"/><path class="cls-1" d="M52.04306,39.28343h0a3.86526,3.86526,0,0,0-5.3441.03l-.18928.18315A20.2289,20.2289,0,0,1,39.928,43.752l-.66632.26536"/><line class="cls-1" x1="38.66138" y1="42.26882" x2="38.65138" y2="42.27929"/><path class="cls-1" d="M11.88823,59.95563h-4.951c-1.11564,0-.92482-.48717-.92482-1.08813V44.36944c0-.601-.19082-1.08813.92482-1.08813h4.951c1.11564,0,.92481.48717.92481,1.08813V58.8675C12.813,59.46846,13.00387,59.95563,11.88823,59.95563Z"/><path class="cls-1" d="M46.37123,9.36872h.60357A2.029,2.029,0,0,1,48.99908,11.393V38.24724"/><path class="cls-1" d="M16.34128,6.75015V44.05081a1.95147,1.95147,0,0,0,.43643,1.24428"/><path class="cls-1" d="M18.966,9.37079H46.372V6.07093a2.02656,2.02656,0,0,0-2.02656-2.02656H19.04706A2.70209,2.70209,0,0,0,16.345,6.74645v.00332A2.621,2.621,0,0,0,18.966,9.37079Z"/><line class="cls-1" x1="21.16056" y1="42.57438" x2="21.16056" y2="9.36872"/><polygon class="cls-1" points="41.674 22.004 41.674 26.01 37.033 26.01 37.033 38.135 33.027 38.135 33.027 26.01 28.136 26.01 28.136 22.004 33.027 22.004 33.027 17.174 37.033 17.174 37.033 22.004 41.674 22.004"/></g></svg>