<svg id="icons" xmlns="http://www.w3.org/2000/svg" viewBox="0 0 64 64"><defs><style>.cls-1{fill:none;stroke:#000;stroke-linecap:round;stroke-linejoin:round;stroke-width:2px;}</style></defs><title>15</title><g id="contract"><path class="cls-1" d="M43.439,49.98542l5.55044.00575c0,1.4682-1.24195,4.20381-2.77611,4.20381H16.196"/><path class="cls-1" d="M43.44,28.59V12.46a2.70384,2.70384,0,0,0-2.78-2.65H10.65a2.7101,2.7101,0,0,1,2.78,2.65V51.53a2.70078,2.70078,0,0,0,2.76,2.66h.01c1.54-.01,2.77-2.73,2.77-4.21H43.44V34.2"/><path class="cls-1" d="M10.64591,9.805S4.75868,9.7702,4,14.7773h9.42"/><line class="cls-1" x1="18.32421" y1="45.2636" x2="22.4848" y2="45.2636"/><path class="cls-1" d="M35.22473,42.4217A14.07755,14.07755,0,0,0,40.52718,38.106L59.68024,12.402a1.60376,1.60376,0,0,0-.38308-2.28624h0a1.72948,1.72948,0,0,0-2.36285.37066l-19.15306,25.704a13.47273,13.47273,0,0,0-2.55652,6.23128Z"/><line class="cls-1" x1="49.37795" y1="20.62731" x2="52.12388" y2="22.5429"/><path class="cls-1" d="M26.42758,45.2636l6.48333-5.217a1.41275,1.41275,0,0,0,.53321-1.10006v-.791a1.45533,1.45533,0,0,0-1.47871-1.43077H31.958a1.48591,1.48591,0,0,0-1.309.76525l-.16681.30718a10.52727,10.52727,0,0,0-1.14238,6.76239h0a.76961.76961,0,0,0,1.20761.47657l1.08495-.77592a.77746.77746,0,0,1,1.12861.24843h0a.77558.77558,0,0,0,1.35314-.00663l1.11059-2.08042"/><line class="cls-1" x1="18.32421" y1="19.35631" x2="39.39609" y2="19.35631"/><line class="cls-1" x1="18.32421" y1="23.32354" x2="39.39609" y2="23.32354"/><line class="cls-1" x1="18.32421" y1="27.29078" x2="28.86015" y2="27.29078"/><line class="cls-1" x1="18.32421" y1="31.25801" x2="28.86015" y2="31.25801"/><line class="cls-1" x1="18.32421" y1="35.22525" x2="23.59218" y2="35.22525"/></g></svg>