<svg id="icons" xmlns="http://www.w3.org/2000/svg" viewBox="0 0 64 64"><defs><style>.cls-1{fill:none;stroke:#000;stroke-linecap:round;stroke-linejoin:round;stroke-width:2px;}</style></defs><title>19</title><g id="chat"><path class="cls-1" d="M28.51382,24.15794v-6.3164A2.84355,2.84355,0,0,1,31.35141,15.004h25.811A2.83881,2.83881,0,0,1,60,17.84154V30.467a2.8341,2.8341,0,0,1-2.83759,2.83759H54.19953"/><line class="cls-1" x1="47.65465" y1="33.30455" x2="35.48618" y2="33.30455"/><polyline class="cls-1" points="54.2 33.305 54.2 39.849 47.655 33.305"/><path class="cls-1" d="M16.34535,42.45854H32.64859A2.84355,2.84355,0,0,0,35.48618,39.621V26.99553a2.82925,2.82925,0,0,0-1.533-2.52067,2.866,2.866,0,0,0-1.30456-.31692H6.83759A2.83881,2.83881,0,0,0,4,26.99553V39.621a2.84355,2.84355,0,0,0,2.83759,2.83759H9.80047"/><polyline class="cls-1" points="16.345 42.459 9.8 48.996 9.8 42.459"/><line class="cls-1" x1="9.80503" y1="28.90863" x2="30.4073" y2="28.90863"/><line class="cls-1" x1="9.80306" y1="33.62507" x2="30.32284" y2="33.62507"/><line class="cls-1" x1="9.80405" y1="37.85704" x2="30.32284" y2="37.85704"/><path class="cls-1" d="M41.35946,21.22759A2.89745,2.89745,0,1,1,44.25691,24.125v3.1591"/><circle cx="44.25691" cy="29.63877" r="0.95091"/></g></svg>