<svg id="icons" xmlns="http://www.w3.org/2000/svg" viewBox="0 0 64 64"><defs><style>.cls-1{fill:none;stroke:#000;stroke-linecap:round;stroke-linejoin:round;stroke-width:2px;}</style></defs><title>29</title><g id="justice_2"><path class="cls-1" d="M40.66037,53.969H23.49648c-1.6307,0-4.95266,6.031-4.95266,6.031H45.613S42.29107,53.969,40.66037,53.969Z"/><line class="cls-1" x1="29.89417" y1="53.96902" x2="29.89417" y2="47.98704"/><line class="cls-1" x1="29.89417" y1="43.24047" x2="29.89417" y2="14.50999"/><line class="cls-1" x1="34.39691" y1="43.24047" x2="34.39691" y2="14.50999"/><line class="cls-1" x1="34.39691" y1="53.96902" x2="34.39691" y2="47.98704"/><path class="cls-1" d="M35.421,45.61374a3.28565,3.28565,0,1,1-1.0241-2.37328A3.23828,3.23828,0,0,1,35.421,45.61374Z"/><circle class="cls-1" cx="32.14322" cy="12.12934" r="3.27535"/><path class="cls-1" d="M25.27737,32.93743H9.7494c0,2.51364,3.47606,4.55135,7.764,4.55135S25.27737,35.45107,25.27737,32.93743Z"/><path class="cls-1" d="M39.29552,16.68264H54.2506c0,2.51364-3.34781,4.55135-7.47754,4.55135S39.29552,19.19628,39.29552,16.68264Z"/><line class="cls-1" x1="46.77538" y1="4" x2="35.00649" y2="10.54279"/><line class="cls-1" x1="29.28459" y1="13.71259" x2="17.5157" y2="20.25537"/><line class="cls-1" x1="17.51339" y1="20.25703" x2="17.51339" y2="24.80969"/><line class="cls-1" x1="46.77306" y1="4.00223" x2="46.77306" y2="8.5549"/><line class="cls-1" x1="9.7494" y1="32.93743" x2="17.51339" y2="24.80969"/><line class="cls-1" x1="25.27737" y1="32.93743" x2="17.51339" y2="24.80969"/><line class="cls-1" x1="46.77306" y1="8.5549" x2="39.29552" y2="16.68264"/><line class="cls-1" x1="54.2506" y1="16.68264" x2="46.77306" y2="8.5549"/></g></svg>