<svg id="icons" xmlns="http://www.w3.org/2000/svg" viewBox="0 0 64 64"><defs><style>.cls-1{fill:none;stroke:#000;stroke-linecap:round;stroke-linejoin:round;stroke-width:2px;}</style></defs><title>53</title><g id="Bible_2"><path class="cls-1" d="M10.24792,7.60441V57.3a2.7,2.7,0,0,0,2.7,2.7H51.05208a2.7,2.7,0,0,0,2.7-2.7V13.79641a2.7,2.7,0,0,0-2.7-2.7h-.799"/><path class="cls-1" d="M13.73992,11.09641H50.25311V6.7a2.7,2.7,0,0,0-2.7-2.7H13.84792a3.6,3.6,0,0,0-3.6,3.6v.00443A3.492,3.492,0,0,0,13.73992,11.09641Z"/><line class="cls-1" x1="16.66694" y1="11.09641" x2="16.66694" y2="60.00001"/><path class="cls-1" d="M43.99365,28.92774v3.337a1,1,0,0,1-1,1h-5.183v15.155a1,1,0,0,1-1,1h-3.337a1,1,0,0,1-1-1v-15.155h-5.516a1,1,0,0,1-1-1v-3.337a1,1,0,0,1,1-1h5.516v-5.435a1,1,0,0,1,1-1h3.337a1,1,0,0,1,1,1v5.435h5.183A1,1,0,0,1,43.99365,28.92774Z"/></g></svg>