<svg width="559" height="393" viewBox="0 0 559 393" fill="none" xmlns="http://www.w3.org/2000/svg">
<g filter="url(#filter0_d_2_421)">
<path d="M120 151.391C120 142.555 127.163 135.391 136 135.391H423C431.837 135.391 439 142.555 439 151.391V252.391C439 261.228 431.837 268.391 423 268.391H136C127.163 268.391 120 261.228 120 252.391V151.391Z" fill="white"/>
<path d="M287.672 117.365C288.073 116.86 288.838 116.86 289.239 117.365L296.694 126.756C297.215 127.412 296.748 128.378 295.911 128.378H281C280.163 128.378 279.697 127.412 280.217 126.756L287.672 117.365Z" fill="white"/>
<path d="M314.956 116.608C315.356 116.104 316.122 116.104 316.522 116.608L323.978 126C324.498 126.655 324.031 127.622 323.194 127.622H308.283C307.446 127.622 306.98 126.655 307.5 126L314.956 116.608Z" fill="white"/>
</g>
<defs>
<filter id="filter0_d_2_421" x="0" y="0.22998" width="559" height="392.161" filterUnits="userSpaceOnUse" color-interpolation-filters="sRGB">
<feFlood flood-opacity="0" result="BackgroundImageFix"/>
<feColorMatrix in="SourceAlpha" type="matrix" values="0 0 0 0 0 0 0 0 0 0 0 0 0 0 0 0 0 0 127 0" result="hardAlpha"/>
<feOffset dy="4"/>
<feGaussianBlur stdDeviation="60"/>
<feColorMatrix type="matrix" values="0 0 0 0 0 0 0 0 0 0 0 0 0 0 0 0 0 0 0.05 0"/>
<feBlend mode="normal" in2="BackgroundImageFix" result="effect1_dropShadow_2_421"/>
<feBlend mode="normal" in="SourceGraphic" in2="effect1_dropShadow_2_421" result="shape"/>
</filter>
</defs>
</svg>
